<?xml version="1.0" encoding="utf-8"?>
<!-- Generator: Adobe Illustrator 16.0.4, SVG Export Plug-In . SVG Version: 6.00 Build 0)  -->
<!DOCTYPE svg PUBLIC "-//W3C//DTD SVG 1.1//EN" "http://www.w3.org/Graphics/SVG/1.1/DTD/svg11.dtd">
<svg version="1.1" id="Layer_1" xmlns="http://www.w3.org/2000/svg" xmlns:xlink="http://www.w3.org/1999/xlink" x="0px" y="0px"
	 width="750.115px" height="672px" viewBox="976 0 750.115 672" enable-background="new 976 0 750.115 672" xml:space="preserve">
<g>
	<polygon fill="#AAA28E" points="1346.549,124.685 1296.253,174.98 1396.845,174.98 	"/>
	<rect x="1413.989" y="266.984" fill="#AAA28E" width="38.019" height="56.062"/>
	<rect x="1332.036" y="266.984" fill="#AAA28E" width="38.04" height="56.062"/>
	<rect x="1370.076" y="351.088" fill="#AAA28E" width="38.004" height="56.045"/>
	<rect x="1294.032" y="351.088" fill="#AAA28E" width="38.004" height="56.045"/>
	<rect x="1250.086" y="266.984" fill="#AAA28E" width="38.037" height="56.062"/>
	<rect x="1168.151" y="266.984" fill="#AAA28E" width="38.021" height="56.062"/>
	<rect x="1217.988" y="351.088" fill="#AAA28E" width="38.004" height="56.045"/>
	<rect x="1259.115" y="450.04" fill="#AAA28E" width="183.9" height="46.009"/>
	<rect x="1446.12" y="351.088" fill="#AAA28E" width="38.022" height="56.045"/>
	<rect x="1495.939" y="266.984" fill="#AAA28E" width="38.04" height="56.062"/>
	<path fill="#AAA28E" d="M1534.967,547.315h-367.821c-28.27,0-51.299-23.014-51.299-51.301V266.138
		c0-28.251,23.029-51.302,51.299-51.302h367.821c28.285,0,51.302,23.051,51.302,51.302v229.877
		C1586.269,524.302,1563.252,547.315,1534.967,547.315z M1167.146,225.489c-22.412,0-40.666,18.217-40.666,40.648v229.877
		c0,22.415,18.254,40.649,40.666,40.649h367.821c22.431,0,40.665-18.234,40.665-40.649V266.138
		c0-22.432-18.234-40.648-40.665-40.648H1167.146z"/>
</g>
</svg>
