<?xml version="1.0" encoding="utf-8"?>
<!-- Generator: Adobe Illustrator 16.0.4, SVG Export Plug-In . SVG Version: 6.00 Build 0)  -->
<!DOCTYPE svg PUBLIC "-//W3C//DTD SVG 1.1//EN" "http://www.w3.org/Graphics/SVG/1.1/DTD/svg11.dtd">
<svg version="1.1" id="Layer_1" xmlns="http://www.w3.org/2000/svg" xmlns:xlink="http://www.w3.org/1999/xlink" x="0px" y="0px"
	 width="595.279px" height="841.891px" viewBox="0 0 595.279 841.891" enable-background="new 0 0 595.279 841.891"
	 xml:space="preserve">
<g transform="translate(-1269.146 -200.753)">
	<g transform="translate(0 0)">
		<path fill="#92A2BD" d="M1844.302,801.689h-346.979c-8.343-17.557-26.056-28.732-45.492-28.706
			c-19.468-0.061-37.221,11.122-45.576,28.707h-117.068V441.73h118.992c9.332,14.425,25.312,23.169,42.49,23.253
			c17.223,0.061,33.271-8.718,42.511-23.253h351.038L1844.302,801.689z M1481.004,421.606l-2.729,5.729
			c-4.98,10.681-15.694,17.513-27.479,17.524c-11.787-0.007-22.504-6.84-27.481-17.524l-2.727-5.729H1269.23v400.186h151.421
			l2.113-7.081c3.86-12.83,15.669-21.615,29.066-21.625c13.395,0,25.205,8.778,29.065,21.604l2.114,7.081h381.33V421.606H1481.004z"
			/>
	</g>
	<g transform="translate(7.909 13.367)">
		<path fill="#92A2BD" d="M1445.825,690.806c-9.619,0-17.419,7.799-17.419,17.419l0,0c-0.012,9.62,7.777,17.428,17.397,17.439
			c0.007,0,0.014,0,0.021,0c9.62,0.012,17.429-7.777,17.439-17.397c0-0.014,0-0.027,0-0.042c0-9.62-7.799-17.419-17.419-17.419
			C1445.839,690.806,1445.832,690.806,1445.825,690.806"/>
	</g>
	<g transform="translate(7.909 10.078)">
		<path fill="#92A2BD" d="M1445.825,624.569c-9.619,0-17.419,7.799-17.419,17.418c0,0.009,0,0.016,0,0.021
			c0,9.627,7.792,17.438,17.419,17.461c9.636-0.012,17.439-7.825,17.439-17.461C1463.265,632.376,1455.457,624.569,1445.825,624.569
			L1445.825,624.569"/>
	</g>
	<g transform="translate(7.909 6.792)">
		<path fill="#92A2BD" d="M1445.825,558.391c-9.607-0.012-17.406,7.769-17.419,17.377c0,0.014,0,0.027,0,0.042
			c0.013,9.615,7.805,17.407,17.419,17.418c9.62,0.013,17.429-7.777,17.439-17.396c0-0.008,0-0.015,0-0.021
			c0-9.62-7.799-17.419-17.419-17.419C1445.839,558.391,1445.832,558.391,1445.825,558.391"/>
	</g>
	<g transform="translate(7.909 3.505)">
		<path fill="#92A2BD" d="M1445.825,492.193c-9.607-0.012-17.406,7.768-17.419,17.376c0,0.015,0,0.028,0,0.043
			c-0.012,9.62,7.777,17.428,17.397,17.439c0.007,0,0.014,0,0.021,0c9.62,0.012,17.429-7.777,17.439-17.397c0-0.014,0-0.028,0-0.042
			c0-9.62-7.799-17.419-17.419-17.419C1445.839,492.193,1445.832,492.193,1445.825,492.193"/>
	</g>
</g>
</svg>
