<svg xmlns="http://www.w3.org/2000/svg" xmlns:xlink="http://www.w3.org/1999/xlink" viewBox="-1384.615 1428.441 21.735 20.157">
  <defs>
    <style>
      .cls-1 {
        fill: none;
      }

      .cls-2 {
        clip-path: url(#clip-path);
      }

      .cls-3 {
        fill: #92A2BD;
      }
    </style>
    <clipPath id="clip-path">
      <path id="Path_46" data-name="Path 46" class="cls-1" d="M0-27.04H21.735V-6.883H0Z" transform="translate(0 27.04)"/>
    </clipPath>
  </defs>
  <g id="Group_43" data-name="Group 43" transform="translate(-1384.615 1428.441)">
    <g id="Group_42" data-name="Group 42" class="cls-2">
      <g id="Group_40" data-name="Group 40" transform="translate(0 12.913)">
        <path id="Path_44" data-name="Path 44" class="cls-3" d="M-7.421-2.473H-29.156v-.453c0-1.519,0-3.81,2.552-5.013a19.126,19.126,0,0,1,5.655-1.775.4.4,0,0,1,.441.339.4.4,0,0,1-.34.442,18.322,18.322,0,0,0-5.421,1.7c-1.947.92-2.09,2.562-2.1,3.97h20.16c-.01-1.408-.154-3.05-2.1-3.97a18.306,18.306,0,0,0-5.42-1.7.394.394,0,0,1-.339-.442.4.4,0,0,1,.44-.339A19.129,19.129,0,0,1-9.974-7.94c2.554,1.2,2.553,3.495,2.552,5.013Z" transform="translate(29.156 9.717)"/>
      </g>
      <g id="Group_41" data-name="Group 41" transform="translate(5.534 0)">
        <path id="Path_45" data-name="Path 45" class="cls-3" d="M-1.817-.268a4.234,4.234,0,0,0-3.41,1.733,5,5,0,0,0-.482,3.7.392.392,0,0,1-.052.339.4.4,0,0,1-.3.171c-.058,0-.114.045-.167.127a.849.849,0,0,0-.1.639c.231.584.687,1.2.886,1.2a.421.421,0,0,1,.416.335c.392,2.636,1.967,3.188,3.22,3.188s2.828-.552,3.219-3.188a.4.4,0,0,1,.415-.335c.2,0,.656-.617.888-1.2a.849.849,0,0,0-.1-.639c-.053-.083-.109-.125-.167-.127a.4.4,0,0,1-.3-.171A.4.4,0,0,1,2.1,5.168a5,5,0,0,0-.48-3.7A4.251,4.251,0,0,0-1.817-.268M-1.8,11.954c-1.242,0-3.374-.473-3.952-3.583C-6.5,8.088-7,6.885-7.056,6.732a1.615,1.615,0,0,1,.165-1.349,1.137,1.137,0,0,1,.338-.348,5.84,5.84,0,0,1,.661-3.991,5.036,5.036,0,0,1,4.075-2.1,5.048,5.048,0,0,1,4.1,2.1,5.844,5.844,0,0,1,.66,3.991,1.129,1.129,0,0,1,.338.348,1.609,1.609,0,0,1,.165,1.349c-.06.154-.556,1.354-1.3,1.64C1.57,11.481-.561,11.954-1.8,11.954" transform="translate(7.137 1.054)"/>
      </g>
    </g>
  </g>
</svg>
