<?xml version="1.0" encoding="utf-8"?>
<!-- Generator: Adobe Illustrator 16.0.4, SVG Export Plug-In . SVG Version: 6.00 Build 0)  -->
<!DOCTYPE svg PUBLIC "-//W3C//DTD SVG 1.1//EN" "http://www.w3.org/Graphics/SVG/1.1/DTD/svg11.dtd">
<svg version="1.1" id="Layer_1" xmlns="http://www.w3.org/2000/svg" xmlns:xlink="http://www.w3.org/1999/xlink" x="0px" y="0px"
	 width="750.115px" height="672px" viewBox="976 0 750.115 672" enable-background="new 976 0 750.115 672" xml:space="preserve">
<g>
	<path fill="#AAA28E" d="M1351.055,490.756c-111.146,0-201.569-90.425-201.569-201.576c0-111.146,90.423-201.573,201.569-201.573
		s201.575,90.428,201.575,201.573C1552.63,400.331,1462.201,490.756,1351.055,490.756z M1351.055,103.834
		c-102.195,0-185.342,83.145-185.342,185.346c0,102.202,83.146,185.349,185.342,185.349c102.194,0,185.348-83.146,185.348-185.349
		C1536.402,186.979,1453.249,103.834,1351.055,103.834z M1351.055,383.414c-51.96,0-94.228-42.274-94.228-94.234
		c0-51.953,42.268-94.23,94.228-94.23c51.959,0,94.233,42.271,94.233,94.23S1403.014,383.414,1351.055,383.414z M1351.055,211.184
		c-43.009,0-78,34.993-78,78.003c0,43.016,34.991,78.012,78,78.012s78.006-34.996,78.006-78.012
		C1429.061,246.17,1394.063,211.184,1351.055,211.184z"/>
	<path fill="#AAA28E" d="M1351.055,353.229c-35.313,0-64.048-28.731-64.048-64.049s28.734-64.055,64.048-64.055
		c35.308,0,64.048,28.737,64.048,64.055C1415.103,324.503,1386.362,353.229,1351.055,353.229z M1351.055,241.353
		c-26.363,0-47.82,21.454-47.82,47.827s21.457,47.823,47.82,47.823c26.369,0,47.82-21.45,47.82-47.823
		C1398.875,262.813,1377.424,241.353,1351.055,241.353z"/>
	<path fill="#AAA28E" d="M1390.989,295.312c0,0-4.349-13.924-18.762-28.338c-14.421-14.418-28.342-18.766-28.342-18.766
		C1370.87,236.57,1403.07,268.135,1390.989,295.312z"/>
	<path fill="#AAA28E" d="M1351.048,584.394c-77.777,0-160.449-22.452-160.449-64.036c0-18.256,17.159-34.787,48.327-46.552
		l3.64-1.382l3.359,1.984c31.777,18.769,68.124,28.689,105.13,28.689c37.005,0,73.366-9.921,105.149-28.689l3.354-1.984l3.645,1.382
		c31.154,11.765,48.314,28.296,48.314,46.552C1511.517,561.941,1428.832,584.394,1351.048,584.394z M1241.106,490.369
		c-21.545,8.747-34.28,19.828-34.28,29.977c0,22.61,59.23,47.808,144.222,47.808c84.997,0,144.242-25.197,144.242-47.808
		c0-10.148-12.742-21.229-34.282-29.977c-33.444,18.953-71.376,28.949-109.946,28.949
		C1312.482,519.318,1274.557,509.322,1241.106,490.369z"/>
</g>
</svg>
