<?xml version="1.0" encoding="utf-8"?>
<!-- Generator: Adobe Illustrator 16.0.4, SVG Export Plug-In . SVG Version: 6.00 Build 0)  -->
<!DOCTYPE svg PUBLIC "-//W3C//DTD SVG 1.1//EN" "http://www.w3.org/Graphics/SVG/1.1/DTD/svg11.dtd">
<svg version="1.1" id="Layer_1" xmlns="http://www.w3.org/2000/svg" xmlns:xlink="http://www.w3.org/1999/xlink" x="0px" y="0px"
	 width="100px" height="82.839px" viewBox="0 0 100 82.839" enable-background="new 0 0 100 82.839" xml:space="preserve">
<g>
	<g>
		<rect fill="none" width="100" height="82.839"/>
	</g>
	<g id="Group_9546">
		<g>
			<rect fill="none" width="100" height="82.839"/>
		</g>
	</g>
</g>
<g>
	<path fill="#92A2BD" enable-background="new    " d="M50,12.054c-16.219,0-29.367,13.145-29.367,29.368
		c0,16.214,13.148,29.363,29.367,29.363c16.217,0,29.367-13.149,29.367-29.363C79.367,25.197,66.217,12.054,50,12.054z
		 M74.986,29.808c1.316,2.82,2.1,5.742,2.414,8.676c-0.857,4.229-3.217,8.524-6.787,12.344c0.289-4.923-0.582-10.268-2.707-15.507
		c2.398-2.648,4.287-5.439,5.598-8.272C74.041,27.928,74.543,28.849,74.986,29.808z M50.045,44.097
		c-5.037,2.222-10.113,3.548-14.859,4.011c-2.838-6.179-3.863-12.575-3.271-18.221c3.504-0.124,7.035-0.865,10.441-2.294
		L50.045,44.097z M44.441,26.618c3.287-1.683,6.123-3.909,8.463-6.514c4.705,3.188,8.943,8.085,11.85,14.227
		c-3.406,3.338-7.686,6.362-12.617,8.791L44.441,26.618z M51.383,46.964l6.051,12.982c-3.355,1.454-6.748,2.409-10.037,2.902
		c-4.133-2.75-7.898-6.813-10.748-11.879C41.396,50.477,46.416,49.153,51.383,46.964z M53.471,45.994
		C58.338,43.6,62.576,40.61,66,37.292c2.053,5.451,2.736,10.949,2.184,15.881c-2.488,2.202-5.4,4.173-8.664,5.799L53.471,45.994z
		 M71.814,24.6c-1.197,2.653-2.961,5.294-5.217,7.814c-3.055-6.073-7.426-10.886-12.283-14c0.9-1.163,1.715-2.385,2.428-3.666
		C62.625,16.23,67.98,19.636,71.814,24.6z M54.5,14.286c-0.621,1.047-1.305,2.058-2.068,3.027c-2.707-1.461-5.523-2.389-8.326-2.734
		C47.578,13.803,51.107,13.729,54.5,14.286z M51.033,18.947c-2.104,2.269-4.625,4.202-7.512,5.693l-4.004-8.588
		C43.309,15.789,47.277,16.821,51.033,18.947z M41.434,25.613c-3.004,1.254-6.109,1.938-9.203,2.089
		c0.789-4.245,2.557-7.954,5.197-10.682L41.434,25.613z M33.34,19.604c-1.539,2.357-2.633,5.114-3.264,8.115
		c-1.223-0.037-2.436-0.163-3.637-0.355C28.193,24.403,30.521,21.759,33.34,19.604z M25.357,29.372
		c1.434,0.273,2.889,0.441,4.355,0.5c-0.744,5.721,0.129,12.161,2.814,18.403c-3.371,0.108-6.531-0.231-9.324-1.015
		C21.867,41.122,22.703,34.828,25.357,29.372z M25.148,53.029c-0.447-0.95-0.822-1.921-1.15-2.892c3,0.812,6.357,1.153,9.912,1.021
		c2.643,4.995,6.174,9.1,10.127,12.041c-5.219,0.271-10.021-0.685-13.811-2.755C28.189,58.326,26.459,55.848,25.148,53.029z
		 M34.578,64.129c3.729,1.124,7.961,1.488,12.385,1c2.926,1.681,5.996,2.76,9.045,3.134C48.502,69.929,40.744,68.333,34.578,64.129z
		 M50.369,64.583c2.664-0.553,5.361-1.39,8.033-2.552l2.215,4.763C57.25,67.027,53.744,66.248,50.369,64.583z M60.492,61.06
		c2.596-1.301,4.98-2.813,7.105-4.493c-0.893,3.651-2.553,6.824-4.893,9.248L60.492,61.06z M66.783,63.249
		c1.68-2.578,2.836-5.633,3.426-8.958c3.213-3.079,5.674-6.532,7.213-10.11C76.662,51.611,72.893,58.577,66.783,63.249z"/>
</g>
</svg>
