<?xml version="1.0" encoding="utf-8"?>
<!-- Generator: Adobe Illustrator 16.0.4, SVG Export Plug-In . SVG Version: 6.00 Build 0)  -->
<!DOCTYPE svg PUBLIC "-//W3C//DTD SVG 1.1//EN" "http://www.w3.org/Graphics/SVG/1.1/DTD/svg11.dtd">
<svg version="1.1" id="Layer_1" xmlns="http://www.w3.org/2000/svg" xmlns:xlink="http://www.w3.org/1999/xlink" x="0px" y="0px"
	 width="100px" height="82.839px" viewBox="0 0 100 82.839" enable-background="new 0 0 100 82.839" xml:space="preserve">
<g>
	<g>
		<g>
			<path fill="#92A2BD" d="M28.564,13.701c-15.307,0-27.72,12.408-27.72,27.719c0,15.309,12.413,27.717,27.72,27.717
				c15.309,0,27.721-12.408,27.721-27.717C56.285,26.106,43.871,13.701,28.564,13.701z M52.15,30.46
				c1.243,2.661,1.981,5.418,2.278,8.188c-0.812,3.989-3.037,8.045-6.405,11.649c0.271-4.646-0.55-9.689-2.557-14.636
				c2.263-2.499,4.046-5.134,5.283-7.81C51.258,28.685,51.73,29.554,52.15,30.46z M28.608,43.946
				c-4.755,2.099-9.546,3.351-14.024,3.787c-2.68-5.832-3.648-11.869-3.088-17.199c3.307-0.116,6.639-0.815,9.854-2.165
				L28.608,43.946z M23.318,27.448c3.104-1.588,5.78-3.69,7.988-6.147c4.443,3.008,8.443,7.631,11.184,13.428
				c-3.213,3.15-7.252,6.006-11.91,8.3L23.318,27.448z M29.871,46.655l5.709,12.254c-3.168,1.369-6.367,2.274-9.474,2.737
				c-3.899-2.594-7.454-6.43-10.145-11.213C20.443,49.968,25.183,48.718,29.871,46.655z M31.844,45.738
				c4.591-2.26,8.593-5.083,11.826-8.215c1.936,5.145,2.582,10.337,2.061,14.992c-2.349,2.076-5.097,3.936-8.179,5.474
				L31.844,45.738z M49.154,25.542c-1.13,2.506-2.793,4.998-4.925,7.377c-2.883-5.73-7.008-10.275-11.592-13.215
				c0.851-1.097,1.617-2.251,2.294-3.459C40.481,17.642,45.535,20.858,49.154,25.542z M32.813,15.808
				c-0.584,0.988-1.231,1.94-1.95,2.856c-2.557-1.378-5.216-2.255-7.861-2.581C26.281,15.351,29.608,15.283,32.813,15.808z
				 M29.539,20.208c-1.983,2.141-4.362,3.965-7.088,5.373l-3.779-8.105C22.25,17.226,25.994,18.201,29.539,20.208z M20.479,26.5
				c-2.835,1.184-5.767,1.83-8.688,1.973c0.746-4.008,2.414-7.508,4.908-10.082L20.479,26.5z M12.84,20.828
				c-1.453,2.227-2.487,4.828-3.082,7.661c-1.154-0.036-2.297-0.153-3.432-0.335C7.982,25.358,10.18,22.863,12.84,20.828z
				 M5.306,30.048c1.353,0.258,2.728,0.416,4.11,0.471c-0.702,5.4,0.123,11.479,2.656,17.373c-3.183,0.1-6.166-0.219-8.802-0.959
				C2.011,41.14,2.8,35.198,5.306,30.048z M5.107,52.378c-0.421-0.896-0.775-1.812-1.085-2.73c2.831,0.767,6,1.089,9.354,0.962
				c2.496,4.717,5.828,8.593,9.559,11.366c-4.926,0.258-9.459-0.645-13.033-2.598C7.978,57.376,6.345,55.037,5.107,52.378z
				 M14.008,62.855c3.52,1.061,7.515,1.406,11.691,0.945c2.76,1.586,5.66,2.604,8.537,2.957
				C27.15,68.328,19.828,66.822,14.008,62.855z M28.914,63.284c2.515-0.521,5.061-1.31,7.584-2.407l2.091,4.494
				C35.41,65.589,32.1,64.857,28.914,63.284z M38.47,59.96c2.45-1.229,4.701-2.656,6.704-4.244c-0.84,3.445-2.409,6.444-4.617,8.729
				L38.47,59.96z M44.406,62.024c1.588-2.435,2.678-5.316,3.235-8.457c3.034-2.903,5.356-6.164,6.81-9.54
				C53.731,51.04,50.173,57.616,44.406,62.024z"/>
		</g>
		<path fill="#92A2BD" d="M96.432,53.046H96.43l-44.375-0.062l0.46-1.08c1.249-2.934,1.83-6.264,1.83-10.482
			c0-4.008-0.63-7.438-1.929-10.484l-0.459-1.08l44.473-0.062c1.502,0,2.723,1.221,2.723,2.721v17.811
			C99.154,51.825,97.933,53.046,96.432,53.046z M54.373,51.431l42.061,0.06c0.643,0,1.166-0.522,1.166-1.166v-17.81
			c0-0.644-0.523-1.168-1.167-1.168l-42.153,0.06c1.09,2.965,1.623,6.254,1.623,10.013C55.9,45.353,55.414,48.57,54.373,51.431z"/>
		<g enable-background="new    ">
			<path fill="#92A2BD" d="M61.338,45.513l-1.854-8.084h1.822l1.188,5.832l1.43-5.832h1.729l1.381,5.832l1.221-5.832h1.779
				l-1.963,8.084h-1.896l-1.425-5.707l-1.502,5.707H61.338L61.338,45.513z"/>
		</g>
		<g enable-background="new    ">
			<path fill="#92A2BD" d="M72.48,45.513l-1.854-8.084h1.822l1.188,5.832l1.43-5.832h1.729l1.383,5.832l1.22-5.832h1.779
				l-1.963,8.084h-1.896l-1.424-5.707l-1.503,5.707H72.48L72.48,45.513z"/>
		</g>
		<g enable-background="new    ">
			<path fill="#92A2BD" d="M83.756,45.513l-1.854-8.084h1.82l1.188,5.832l1.431-5.832h1.728l1.383,5.832l1.219-5.832h1.781
				l-1.965,8.084h-1.895l-1.424-5.707l-1.504,5.707H83.756L83.756,45.513z"/>
		</g>
	</g>
	<rect y="0" fill="none" width="100" height="82.84"/>
</g>
</svg>
