<?xml version="1.0" encoding="utf-8"?>
<!-- Generator: Adobe Illustrator 16.0.4, SVG Export Plug-In . SVG Version: 6.00 Build 0)  -->
<!DOCTYPE svg PUBLIC "-//W3C//DTD SVG 1.1//EN" "http://www.w3.org/Graphics/SVG/1.1/DTD/svg11.dtd">
<svg version="1.1" id="Layer_1" xmlns="http://www.w3.org/2000/svg" xmlns:xlink="http://www.w3.org/1999/xlink" x="0px" y="0px"
	 width="750.115px" height="672px" viewBox="976 0 750.115 672" enable-background="new 976 0 750.115 672" xml:space="preserve">
<g>
	<path fill-rule="evenodd" clip-rule="evenodd" fill="#AAA28E" d="M1543.391,465.866c-41.575-44.282-127.986-60.257-127.986-60.257
		l-45.327,94.313l-10.455-61.21l11.562-14.792l-11.562-11.823h-7.411h-2.307h-7.411l-11.562,11.823l11.562,14.792l-10.485,61.21
		l-45.266-94.313c0,0-86.442,15.975-128.018,60.257c-19.005,20.219-27.953,40.576-27.953,80.86h219.133h2.307h219.133
		C1571.344,506.442,1562.396,486.085,1543.391,465.866z M1476.784,513.53h-50.187v-27.66h50.187V513.53z"/>
	<path fill-rule="evenodd" clip-rule="evenodd" fill="#AAA28E" d="M1265.093,259.787c-6.366,4.321-6.766,10.856-7.042,15.606
		l-0.092,1.246c-1.169,16.729,3.044,32.012,12.576,45.42c6.98,9.87,12.332,20.741,16.821,30.166
		c13.038,27.369,37.455,44.359,63.778,44.359c15.99,0,31.212-6.073,44.097-17.59c14.238-12.731,46.188-70.42,48.833-88.148
		l0.185-1.153c1.261-8.519,2.891-19.112-4.551-27.015c-3.414-3.598-3.506-6.98-3.659-12.116v-0.431
		c-0.123-3.552-0.093-7.196-0.062-10.748c0.062-8.395,0.092-17.051-1.384-25.523c-7.258-40.837-35.241-62.363-83.183-63.962h-0.246
		l-0.246,0.015c-1.722,0.139-3.536,0.246-5.381,0.369c-4.367,0.261-8.888,0.538-13.53,1.138
		c-36.933,4.782-63.102,32.996-65.07,70.221c-0.369,6.734-0.615,13.561-0.83,20.157c-0.154,4.044-0.277,8.057-0.461,12.101
		c-0.031,0.769,0,1.583,0,2.398C1265.707,258.972,1265.584,259.464,1265.093,259.787z M1267.152,277.284l0.093-1.337
		c0.276-4.429,0.522-6.828,3.014-8.503c4.828-3.275,4.705-8.364,4.612-11.393c-0.03-0.584-0.03-1.184,0-1.753
		c0.154-4.075,0.309-8.118,0.462-12.193c0.215-6.535,0.431-13.331,0.8-19.958c1.752-32.643,24.693-57.397,57.074-61.564
		c4.336-0.569,8.672-0.846,12.915-1.107c1.814-0.123,3.567-0.215,5.228-0.338c43.451,1.507,67.715,19.942,74.142,56.321
		c1.353,7.642,1.322,15.514,1.261,23.863c-0.031,3.629-0.062,7.365,0.062,11.071l0.03,0.43c0.123,5.643,0.308,12.039,6.12,18.205
		c4.397,4.613,3.29,11.747,2.152,19.281l-0.185,1.153c-2.275,15.268-33.58,71.65-45.85,82.644
		c-11.163,9.994-24.264,15.253-37.947,15.253c-23.063,0-43.79-14.607-55.414-39.085c-4.674-9.779-10.24-21.08-17.682-31.535
		C1269.797,305.114,1266.139,291.814,1267.152,277.284z"/>
	<path fill-rule="evenodd" clip-rule="evenodd" fill="#AAA28E" d="M1237.939,312.879c11.471-0.754,10.578-8.872,10.547-16.713
		c-0.03-11.532,0-23.064,0-34.58c0-10.748,0.186-21.526-0.061-32.273c-0.431-19.343,6.15-36.133,17.989-51.078
		c37.271-47.095,115.84-52.185,159.783-10.563c15.652,14.837,26.877,32.658,27.368,54.168c0.893,35.256,2.399,70.636-1.045,105.922
		c-0.584,6.136-2.029,10.303-8.211,13.547c-8.057,4.259-11.562,12.131-9.533,21.51c1.999,9.195,7.903,14.991,17.129,16.406
		c8.702,1.322,16.206-1.938,20.695-9.579c4.859-8.349,4.121-16.867-1.938-24.724c-8.333-10.81-4.704-28.398,6.98-34.596
		c7.534-3.982,11.071-10.225,11.04-18.727c-0.092-17.299-0.062-34.611,0-51.878c0.031-9.533-4.059-16.652-13.254-19.343
		c-6.181-1.799-8.518-5.304-9.502-11.163c-2.184-13.115-7.719-24.97-15.714-35.471c-30.782-40.592-73.003-54.353-121.375-46.25
		c-48.218,8.087-81.829,35.41-93.269,85.15c-1.106,4.936-3.937,5.935-7.595,7.104c-6.582,2.152-12.947,5.965-13.162,13.023
		c-0.738,21.864-0.953,43.79-0.031,65.638C1215.184,307.743,1226.623,313.602,1237.939,312.879z"/>
</g>
</svg>
