<?xml version="1.0" encoding="utf-8"?>
<!-- Generator: Adobe Illustrator 16.0.4, SVG Export Plug-In . SVG Version: 6.00 Build 0)  -->
<!DOCTYPE svg PUBLIC "-//W3C//DTD SVG 1.1//EN" "http://www.w3.org/Graphics/SVG/1.1/DTD/svg11.dtd">
<svg version="1.1" id="Capa_1" xmlns="http://www.w3.org/2000/svg" xmlns:xlink="http://www.w3.org/1999/xlink" x="0px" y="0px"
	 width="97px" height="89px" viewBox="0 0 97 89" enable-background="new 0 0 97 89" xml:space="preserve">
<g>
	<g>
		<rect fill="none" width="97" height="89"/>
	</g>
	<path fill="#FFFFFF" d="M76.005,19.21c-3.657-3.83-8.58-6.005-13.864-6.126l-0.426-0.005c-4.843,0.041-9.521,1.771-13.216,4.88
		c-3.698-3.114-8.391-4.845-13.258-4.88c-5.287,0.018-10.251,2.093-13.978,5.843c-3.729,3.752-5.775,8.729-5.758,14.012
		c0,0.136,0.001,0.271,0.004,0.372c0,13.345,11.016,23.379,26.264,37.269l4.2,4.312c0.67,0.658,1.59,1.035,2.533,1.035h0.007
		c0.958-0.005,1.842-0.378,2.554-1.078l3.964-4.094c15.36-13.968,26.458-24.063,26.458-37.413
		C81.61,28.054,79.662,23.037,76.005,19.21z M34.986,20.227l0.226-0.005c4.067,0.075,7.893,1.912,10.494,5.04l0.073,0.085
		c0.638,0.704,1.514,1.126,2.47,1.188l0.211,0.006h0.011c0.885,0,1.74-0.322,2.409-0.91c0.099-0.088,0.195-0.182,0.284-0.279
		l0.077-0.089c2.61-3.135,6.448-4.972,10.522-5.04h0.011c3.379,0.031,6.548,1.374,8.923,3.779c2.383,2.414,3.684,5.611,3.662,8.997
		l-0.005,0.324c-0.006,9.704-8.753,18.145-24.213,32.23l-1.645,1.691l-1.626-1.673l-0.116-0.113
		c-15.406-14.03-24.124-22.443-24.134-32.203C22.441,26.258,27.99,20.412,34.986,20.227z"/>
</g>
</svg>
