<?xml version="1.0" encoding="utf-8"?>
<!-- Generator: Adobe Illustrator 16.0.4, SVG Export Plug-In . SVG Version: 6.00 Build 0)  -->
<!DOCTYPE svg PUBLIC "-//W3C//DTD SVG 1.1//EN" "http://www.w3.org/Graphics/SVG/1.1/DTD/svg11.dtd">
<svg version="1.1" id="Capa_1" xmlns="http://www.w3.org/2000/svg" xmlns:xlink="http://www.w3.org/1999/xlink" x="0px" y="0px"
	 width="97px" height="89px" viewBox="0 0 97 89" enable-background="new 0 0 97 89" xml:space="preserve">
<g>
	<g>
		<rect fill="none" width="97" height="89"/>
	</g>
	<g>
		<path fill="#FFFFFF" d="M78.787,56.878c1.164-0.09,2.08-0.994,2.179-2.145l2.473-27.102l0.001-0.013
			c0.05-0.618-0.147-1.245-0.543-1.722l-0.034-0.04c-0.413-0.458-0.994-0.75-1.595-0.798l-48.767-3.525l-2.812-8.415
			c-0.267-0.799-0.945-1.398-1.762-1.561l-8.358-1.719l-0.045-0.008c-0.253-0.042-0.592-0.092-0.966-0.092
			c-2.364,0-4.427,1.685-4.904,4.009c-0.267,1.312-0.008,2.648,0.728,3.759c0.732,1.106,1.856,1.869,3.175,2.15l3.884,0.794
			l7.17,30.393c-1.904,0.803-3.546,2.096-4.794,3.786c-1.49,2.017-2.277,4.403-2.277,6.903c0,2.177,0.6,4.278,1.737,6.11
			c-0.057,0.442-0.085,0.885-0.085,1.325c0,5.675,4.62,10.291,10.298,10.291c3.75,0,7.199-2.065,9.006-5.328h20.187
			c1.808,3.263,5.256,5.328,9,5.328c5.681,0,10.302-4.616,10.302-10.291c-0.001-5.678-4.62-10.296-10.297-10.296
			c-3.757,0-7.201,2.008-8.994,5.18H42.487c-0.965-1.701-2.437-3.092-4.294-4.05c-0.095-0.047-0.189-0.095-0.284-0.14l40.866-2.786
			H78.787z M33.416,55.233c-2.465,0.148-4.474,1.206-5.662,2.982c-0.981,1.479-1.256,3.279-0.731,4.817
			c0.238,0.695,0.77,1.224,1.46,1.455c0.253,0.09,0.516,0.137,0.787,0.137c0.449,0,0.885-0.127,1.257-0.367
			c0.873-0.55,1.901-0.841,2.973-0.841c0.893,0,1.768,0.207,2.529,0.597c1.328,0.686,2.269,1.72,2.721,2.993
			c0.334,0.943,1.229,1.577,2.227,1.577H64.2c0.997,0,1.893-0.633,2.23-1.578c0.773-2.188,2.837-3.603,5.256-3.603
			c3.071,0,5.57,2.497,5.57,5.566c0,1.482-0.58,2.878-1.633,3.93c-1.055,1.052-2.453,1.632-3.938,1.632
			c-2.35,0-4.463-1.506-5.256-3.744c-0.331-0.944-1.228-1.58-2.23-1.58H40.976c-0.996,0-1.892,0.633-2.227,1.577
			c-0.795,2.241-2.908,3.747-5.26,3.747c-3.071,0-5.57-2.495-5.57-5.562c0-0.421,0.054-0.862,0.156-1.302
			c0.168-0.69,0.015-1.414-0.416-1.978c-0.91-1.205-1.392-2.64-1.392-4.151c0-3.307,2.352-6.15,5.591-6.762l0.018-0.004
			c0.622-0.126,1.177-0.502,1.526-1.035c0.352-0.543,0.465-1.212,0.311-1.837l-8.017-34.003c-0.203-0.892-0.92-1.59-1.828-1.779
			l-5.361-1.1l-0.012-0.002c-0.07-0.014-0.127-0.053-0.17-0.117c-0.039-0.059-0.054-0.129-0.041-0.211
			c0.033-0.114,0.173-0.22,0.296-0.22c0.016,0,0.03,0.002,0.037,0.004l7.021,1.437l2.873,8.614c0.302,0.917,1.117,1.549,2.078,1.611
			l47.919,3.468l-2.067,22.689L33.416,55.233z"/>
		<circle fill="#FFFFFF" cx="33.484" cy="68.955" r="2.941"/>
		<circle fill="#FFFFFF" cx="71.607" cy="68.955" r="2.941"/>
	</g>
</g>
</svg>
